<svg width="24" height="25" viewBox="0 0 24 25" fill="none" xmlns="http://www.w3.org/2000/svg">
<path id="Github" d="M8.02742 19.6417C8.02742 19.7385 7.91613 19.8159 7.77581 19.8159C7.61613 19.8304 7.50484 19.753 7.50484 19.6417C7.50484 19.545 7.61613 19.4675 7.75645 19.4675C7.90161 19.453 8.02742 19.5304 8.02742 19.6417ZM6.52258 19.424C6.48871 19.5208 6.58548 19.6321 6.73065 19.6611C6.85645 19.7095 7.00161 19.6611 7.03064 19.5643C7.05968 19.4675 6.96774 19.3563 6.82258 19.3127C6.69677 19.2788 6.55645 19.3272 6.52258 19.424ZM8.66129 19.3417C8.52097 19.3756 8.42419 19.4675 8.43871 19.5788C8.45323 19.6756 8.57903 19.7385 8.72419 19.7046C8.86452 19.6708 8.96129 19.5788 8.94677 19.4821C8.93226 19.3901 8.80161 19.3272 8.66129 19.3417ZM11.8452 0.799805C5.13387 0.799805 0 5.89497 0 12.6063C0 17.9724 3.37742 22.5643 8.20161 24.1805C8.82097 24.2917 9.03871 23.9095 9.03871 23.595C9.03871 23.295 9.02419 21.6401 9.02419 20.624C9.02419 20.624 5.6371 21.3498 4.92581 19.1821C4.92581 19.1821 4.37419 17.774 3.58065 17.4111C3.58065 17.4111 2.47258 16.6514 3.65806 16.6659C3.65806 16.6659 4.8629 16.7627 5.52581 17.9143C6.58548 19.7821 8.36129 19.245 9.05323 18.9256C9.16452 18.1514 9.47903 17.6143 9.82742 17.295C7.12258 16.995 4.39355 16.603 4.39355 11.9482C4.39355 10.6175 4.76129 9.9498 5.53548 9.09819C5.40968 8.78368 4.99839 7.4869 5.66129 5.81271C6.67258 5.49819 9 7.11916 9 7.11916C9.96774 6.84819 11.0081 6.70787 12.0387 6.70787C13.0694 6.70787 14.1097 6.84819 15.0774 7.11916C15.0774 7.11916 17.4048 5.49335 18.4161 5.81271C19.079 7.49174 18.6677 8.78368 18.5419 9.09819C19.3161 9.95464 19.7903 10.6224 19.7903 11.9482C19.7903 16.6175 16.9403 16.9901 14.2355 17.295C14.6806 17.6772 15.0581 18.403 15.0581 19.5401C15.0581 21.1708 15.0435 23.1885 15.0435 23.5853C15.0435 23.8998 15.2661 24.2821 15.8806 24.1708C20.7194 22.5643 24 17.9724 24 12.6063C24 5.89497 18.5565 0.799805 11.8452 0.799805ZM4.70323 17.4885C4.64032 17.5369 4.65484 17.6482 4.7371 17.7401C4.81452 17.8175 4.92581 17.8514 4.98871 17.7885C5.05161 17.7401 5.0371 17.6288 4.95484 17.5369C4.87742 17.4595 4.76613 17.4256 4.70323 17.4885ZM4.18064 17.0966C4.14677 17.1595 4.19516 17.2369 4.29194 17.2853C4.36935 17.3337 4.46613 17.3192 4.5 17.2514C4.53387 17.1885 4.48548 17.1111 4.38871 17.0627C4.29194 17.0337 4.21452 17.0482 4.18064 17.0966ZM5.74839 18.8192C5.67097 18.8821 5.7 19.0272 5.81129 19.1192C5.92258 19.2305 6.0629 19.245 6.12581 19.1675C6.18871 19.1046 6.15968 18.9595 6.0629 18.8675C5.95645 18.7563 5.81129 18.7417 5.74839 18.8192ZM5.19677 18.1079C5.11935 18.1563 5.11935 18.2821 5.19677 18.3934C5.27419 18.5046 5.40484 18.553 5.46774 18.5046C5.54516 18.4417 5.54516 18.3159 5.46774 18.2046C5.4 18.0934 5.27419 18.045 5.19677 18.1079Z" fill="#1E3050"/>
</svg>
