<svg width="584" height="121" viewBox="0 0 584 121" fill="none" xmlns="http://www.w3.org/2000/svg">
<path d="M7.1733 97V24.2727H20.348V55.0611H54.0483V24.2727H67.2585V97H54.0483V66.1051H20.348V97H7.1733ZM90.9268 97H76.8643L102.468 24.2727H118.732L144.371 97H130.309L110.884 39.1875H110.316L90.9268 97ZM91.3885 68.4844H129.741V79.0668H91.3885V68.4844ZM153.951 97V24.2727H201.252V35.3168H167.125V55.0611H198.801V66.1051H167.125V85.956H201.536V97H153.951Z" fill="white"/>
<path d="M274.861 107.016L274.864 107.016C277.455 106.35 280.868 104.877 284.183 103.104C287.5 101.33 290.758 99.2349 293.033 97.3044L293.035 97.3032C300.287 91.1049 305.955 82.2243 308.411 73.005C309.236 70.0127 309.669 65.5264 309.716 61.1203C309.764 56.7147 309.427 52.3186 308.681 49.5119C305.795 38.556 300.233 29.885 291.781 23.1377L291.779 23.1366C285.619 18.2565 279.667 15.4554 271.661 13.7568C269.611 13.3112 266.007 13.0671 262.455 13.0264C258.903 12.9856 255.325 13.1472 253.328 13.5377C244 15.3485 235.058 20.1752 228.404 26.9789C205.667 50.1807 211.933 88.8543 240.731 103.449C251.421 108.88 262.824 110.03 274.861 107.016ZM290.246 32.7256L290.247 32.7263C298.465 41.1544 302.508 51.6577 301.763 62.7977C301.336 68.9213 300.327 72.8209 297.442 78.6791L297.441 78.6811C292.384 89.07 283.173 96.3652 271.049 99.5885L271.048 99.5888C269.091 100.114 265.733 100.372 262.262 100.359C258.797 100.345 255.293 100.061 253.054 99.5312C240.06 96.3699 229.074 86.1291 224.648 73.0947C223.839 70.6799 223.407 69.2514 223.171 67.6641C222.935 66.0706 222.893 64.3012 222.894 61.2027L222.893 61.1993C222.867 57.1702 223.055 54.3101 223.677 51.576C224.299 48.8422 225.359 46.2087 227.106 42.6397L227.106 42.6396C232.164 32.3019 242.184 24.4169 253.752 21.7356L253.752 21.7356C255.79 21.2626 259.187 21.0971 263.609 21.2055C269.141 21.3676 271.029 21.6358 274.47 22.8073C280.713 24.9545 285.717 28.0619 290.246 32.7256Z" fill="white" stroke="white"/>
<path d="M316.764 106.35C317.689 106.622 318.962 106.937 320.632 107.343C327.295 108.991 336.172 108.991 342.887 107.343C358.816 103.501 371.682 91.4859 376.97 75.5862C377.781 73.2466 378.251 71.6937 378.542 69.8652C378.831 68.0451 378.939 65.9656 379.047 62.5757L379.047 62.5723C379.209 56.0934 379.102 54.1995 378.117 50.0142L378.116 50.0133C374.028 32.7957 361.432 19.4084 344.689 14.5256L344.689 14.5254C342.01 13.7478 337.616 13.2577 333.261 13.108C328.907 12.9584 324.51 13.146 321.828 13.7578C319.871 14.1952 317.319 14.9051 316.166 15.2915L316.166 15.2915L316.163 15.2928L314.112 15.9985L313.216 16.3068L313.976 16.8724L316.675 18.881L316.675 18.881L316.681 18.8859C318.154 19.9443 320.88 22.4688 322.702 24.4628L322.702 24.4628L322.705 24.4665C339.599 42.5904 341.794 69.3706 328.104 90.2428L328.103 90.2437C326.94 92.0247 324.711 94.6727 322.389 97.1436C320.064 99.6188 317.693 101.865 316.256 102.864L316.251 102.867C315.624 103.314 315.083 103.707 314.783 104.061C314.632 104.24 314.477 104.483 314.471 104.78C314.464 105.105 314.637 105.353 314.84 105.527C315.035 105.694 315.301 105.832 315.605 105.957C315.915 106.085 316.302 106.213 316.764 106.35ZM331.095 21.6083L330.502 20.9884H333.162C335.165 20.9884 338.738 21.4699 341.08 22.0589C354.726 25.5444 364.958 35.1892 369.546 48.8758L369.547 48.8785C370.442 51.4978 370.965 55.3635 371.079 59.3172C371.193 63.2686 370.896 67.2494 370.183 70.0928L370.183 70.0935C366.611 84.4138 355.575 95.6705 341.62 99.2611C339.798 99.7125 336.916 100.09 334.481 100.272C333.264 100.363 332.175 100.404 331.397 100.383C331.166 100.377 330.971 100.366 330.812 100.35C330.947 100.144 331.128 99.8808 331.345 99.5725C331.867 98.8324 332.591 97.847 333.398 96.7926L333.402 96.7877C346.629 79.0452 348.803 53.7637 338.845 33.675L338.844 33.6723C336.62 29.254 333.197 23.9454 331.106 21.6198L331.101 21.614L331.095 21.6083Z" fill="white" stroke="white"/>
<path d="M417.818 97H393.173V24.2727H418.315C425.536 24.2727 431.739 25.7287 436.923 28.6406C442.132 31.5289 446.133 35.6837 448.926 41.1051C451.72 46.5265 453.116 53.0133 453.116 60.5653C453.116 68.1411 451.708 74.6515 448.891 80.0966C446.097 85.5417 442.061 89.7202 436.781 92.6321C431.526 95.544 425.205 97 417.818 97ZM406.348 85.6009H417.179C422.245 85.6009 426.471 84.6776 429.857 82.831C433.242 80.9607 435.787 78.179 437.491 74.4858C439.196 70.7689 440.048 66.1288 440.048 60.5653C440.048 55.0019 439.196 50.3854 437.491 46.7159C435.787 43.0227 433.266 40.2647 429.928 38.4418C426.613 36.5952 422.494 35.6719 417.57 35.6719H406.348V85.6009ZM471.067 97H457.005L482.609 24.2727H498.873L524.512 97H510.45L491.025 39.1875H490.457L471.067 97ZM471.529 68.4844H509.881V79.0668H471.529V68.4844ZM534.091 97V24.2727H547.266V85.956H579.297V97H534.091Z" fill="white"/>
</svg>
