<svg width="31" height="30" viewBox="0 0 31 30" fill="none" xmlns="http://www.w3.org/2000/svg">
<g id="Email" clip-path="url(#clip0_2_581)">
<path id="Email-Icon" d="M4.6875 6.5625C4.17188 6.5625 3.75 6.98438 3.75 7.5V8.79492L13.8574 17.0918C15.0703 18.0879 16.8105 18.0879 18.0234 17.0918L28.125 8.79492V7.5C28.125 6.98438 27.7031 6.5625 27.1875 6.5625H4.6875ZM3.75 12.4336V22.5C3.75 23.0156 4.17188 23.4375 4.6875 23.4375H27.1875C27.7031 23.4375 28.125 23.0156 28.125 22.5V12.4336L19.8047 19.2656C17.5547 21.1113 14.3145 21.1113 12.0703 19.2656L3.75 12.4336ZM0.9375 7.5C0.9375 5.43164 2.61914 3.75 4.6875 3.75H27.1875C29.2559 3.75 30.9375 5.43164 30.9375 7.5V22.5C30.9375 24.5684 29.2559 26.25 27.1875 26.25H4.6875C2.61914 26.25 0.9375 24.5684 0.9375 22.5V7.5Z" fill="white"/>
</g>
<defs>
<clipPath id="clip0_2_581">
<rect width="30" height="30" fill="white" transform="translate(0.9375)"/>
</clipPath>
</defs>
</svg>
