<svg width="30" height="30" viewBox="0 0 30 30" fill="none" xmlns="http://www.w3.org/2000/svg">
<g id="Github" clip-path="url(#clip0_2_579)">
<path id="Github-Icon" d="M10.6582 23.2852C10.6582 23.4023 10.5234 23.4961 10.3535 23.4961C10.1602 23.5137 10.0254 23.4199 10.0254 23.2852C10.0254 23.168 10.1602 23.0742 10.3301 23.0742C10.5059 23.0566 10.6582 23.1504 10.6582 23.2852ZM8.83594 23.0215C8.79492 23.1387 8.91211 23.2734 9.08789 23.3086C9.24023 23.3672 9.41602 23.3086 9.45117 23.1914C9.48633 23.0742 9.375 22.9395 9.19922 22.8867C9.04688 22.8457 8.87695 22.9043 8.83594 23.0215ZM11.4258 22.9219C11.2559 22.9629 11.1387 23.0742 11.1562 23.209C11.1738 23.3262 11.3262 23.4023 11.502 23.3613C11.6719 23.3203 11.7891 23.209 11.7715 23.0918C11.7539 22.9805 11.5957 22.9043 11.4258 22.9219ZM15.2812 0.46875C7.1543 0.46875 0.9375 6.63867 0.9375 14.7656C0.9375 21.2637 5.02734 26.8242 10.8691 28.7812C11.6191 28.916 11.8828 28.4531 11.8828 28.0723C11.8828 27.709 11.8652 25.7051 11.8652 24.4746C11.8652 24.4746 7.76367 25.3535 6.90234 22.7285C6.90234 22.7285 6.23438 21.0234 5.27344 20.584C5.27344 20.584 3.93164 19.6641 5.36719 19.6816C5.36719 19.6816 6.82617 19.7988 7.62891 21.1934C8.91211 23.4551 11.0625 22.8047 11.9004 22.418C12.0352 21.4805 12.416 20.8301 12.8379 20.4434C9.5625 20.0801 6.25781 19.6055 6.25781 13.9688C6.25781 12.3574 6.70312 11.5488 7.64062 10.5176C7.48828 10.1367 6.99023 8.56641 7.79297 6.53906C9.01758 6.1582 11.8359 8.12109 11.8359 8.12109C13.0078 7.79297 14.2676 7.62305 15.5156 7.62305C16.7637 7.62305 18.0234 7.79297 19.1953 8.12109C19.1953 8.12109 22.0137 6.15234 23.2383 6.53906C24.041 8.57227 23.543 10.1367 23.3906 10.5176C24.3281 11.5547 24.9023 12.3633 24.9023 13.9688C24.9023 19.623 21.4512 20.0742 18.1758 20.4434C18.7148 20.9062 19.1719 21.7852 19.1719 23.1621C19.1719 25.1367 19.1543 27.5801 19.1543 28.0605C19.1543 28.4414 19.4238 28.9043 20.168 28.7695C26.0273 26.8242 30 21.2637 30 14.7656C30 6.63867 23.4082 0.46875 15.2812 0.46875ZM6.63281 20.6777C6.55664 20.7363 6.57422 20.8711 6.67383 20.9824C6.76758 21.0762 6.90234 21.1172 6.97852 21.041C7.05469 20.9824 7.03711 20.8477 6.9375 20.7363C6.84375 20.6426 6.70898 20.6016 6.63281 20.6777ZM6 20.2031C5.95898 20.2793 6.01758 20.373 6.13477 20.4316C6.22852 20.4902 6.3457 20.4727 6.38672 20.3906C6.42773 20.3145 6.36914 20.2207 6.25195 20.1621C6.13477 20.127 6.04102 20.1445 6 20.2031ZM7.89844 22.2891C7.80469 22.3652 7.83984 22.541 7.97461 22.6523C8.10938 22.7871 8.2793 22.8047 8.35547 22.7109C8.43164 22.6348 8.39648 22.459 8.2793 22.3477C8.15039 22.2129 7.97461 22.1953 7.89844 22.2891ZM7.23047 21.4277C7.13672 21.4863 7.13672 21.6387 7.23047 21.7734C7.32422 21.9082 7.48242 21.9668 7.55859 21.9082C7.65234 21.832 7.65234 21.6797 7.55859 21.5449C7.47656 21.4102 7.32422 21.3516 7.23047 21.4277Z" fill="#0E172A"/>
</g>
<defs>
<clipPath id="clip0_2_579">
<rect width="29.0625" height="30" fill="#0E172A" transform="translate(0.9375)"/>
</clipPath>
</defs>
</svg>
